<svg xmlns="http://www.w3.org/2000/svg" xmlns:xlink="http://www.w3.org/1999/xlink" viewBox="0 0 48 70"><defs><style>.cls-1,.cls-2{font-size:12px;}.cls-1,.cls-4{fill:lime;}.cls-1,.cls-2,.cls-3,.cls-4{font-family:CenturyGothic, Century Gothic;}.cls-2,.cls-3{fill:#00a86b;}.cls-3,.cls-4{font-size:5px;}.cls-5{fill:url(#radial-gradient);}</style><radialGradient id="radial-gradient" cx="24" cy="23.5" r="23.5" gradientUnits="userSpaceOnUse"><stop offset="0" stop-color="#fff"/><stop offset="1" stop-color="#8cc63f"/></radialGradient></defs><title>Artboard 2</title><g id="Layer_2" data-name="Layer 2"><text class="cls-1" transform="translate(10.48 60.82) scale(1.14 1)">W</text><text class="cls-2" transform="translate(37.17 51.85) rotate(180) scale(1.14 1)">W</text><text class="cls-3" transform="translate(23.66 65.32)">make</text><text class="cls-4" transform="translate(11.66 65.32)">web</text><path class="cls-5" d="M24.47,47h-.94c0-1.61.05-3.21,0-4.82a2.33,2.33,0,0,0-.68-1.47,16.38,16.38,0,0,0-10.09-4.22,2.44,2.44,0,0,0-1.62.6c-1.16,1-2.2,2.22-3.4,3.45L7,39.76c1.21-1.17,2.38-2.21,3.43-3.37a2.43,2.43,0,0,0,.6-1.62A16.39,16.39,0,0,0,6.79,24.68,2.33,2.33,0,0,0,5.32,24c-1.6-.09-3.21,0-4.82,0V23c1.61,0,3.21,0,4.82,0a2.18,2.18,0,0,0,1.39-.6A16.48,16.48,0,0,0,11,12.11a2.29,2.29,0,0,0-.61-1.5C9.34,9.46,8.18,8.41,7,7.22l.77-.76C8.91,7.68,10,8.84,11.1,9.9a2.29,2.29,0,0,0,1.51.61,16.48,16.48,0,0,0,10.3-4.3,2.18,2.18,0,0,0,.6-1.39c.07-1.6,0-3.21,0-4.82h.94c0,1.61-.05,3.21,0,4.82a2.34,2.34,0,0,0,.68,1.47A16.38,16.38,0,0,0,35.27,10.5a2.43,2.43,0,0,0,1.62-.6c1.15-1.05,2.2-2.22,3.37-3.43l.79.74c-1.24,1.2-2.41,2.25-3.45,3.4a2.44,2.44,0,0,0-.6,1.62,16.39,16.39,0,0,0,4.22,10.09,2.33,2.33,0,0,0,1.47.68c1.6.09,3.21,0,4.82,0V24c-1.61,0-3.21-.05-4.82,0a2.34,2.34,0,0,0-1.47.68A16.38,16.38,0,0,0,37,34.77a2.44,2.44,0,0,0,.6,1.62c1,1.15,2.22,2.2,3.45,3.39l-.74.75C39.1,39.3,38,38.14,36.89,37.1a2.45,2.45,0,0,0-1.62-.6,16.37,16.37,0,0,0-10.09,4.22,2.34,2.34,0,0,0-.68,1.47C24.42,43.79,24.47,45.39,24.47,47ZM23.53,7.28a48.85,48.85,0,0,1-5.06,2.79A49.1,49.1,0,0,1,13,11.67c2.61,3.34,4.42,3.71,8.15,1.66.27-.15.53-.33.8-.48a2.7,2.7,0,0,0,1.65-3A15.75,15.75,0,0,1,23.53,7.28ZM24.47,7c0,1.43-.07,2.56,0,3.68a2.37,2.37,0,0,0,.68,1.46,10.46,10.46,0,0,0,6.28,2.54,1.15,1.15,0,0,0,.77-.12c1-.94,2-1.92,3.09-3.06A18.81,18.81,0,0,1,24.47,7ZM7.6,22.89c4.28.63,5.76-.25,7-4.15A17.22,17.22,0,0,0,15.16,16a1.17,1.17,0,0,0-.21-.85c-.88-1-1.8-1.92-2.94-3.12A18.88,18.88,0,0,1,7.6,22.89ZM36,12c-1.15,1.23-2.06,2.18-2.93,3.17a1.28,1.28,0,0,0-.22.85,10.89,10.89,0,0,0,2.65,6.49c.17.2.4.49.61.5,1.41,0,2.81,0,4.43,0A18.94,18.94,0,0,1,36,12ZM7.48,24A18.9,18.9,0,0,1,12,34.84c1.09-1.09,2-2,2.87-2.92a1.4,1.4,0,0,0,.28-.95A10.66,10.66,0,0,0,12.5,24.5a1.4,1.4,0,0,0-.85-.5C10.35,23.94,9,24,7.48,24Zm33,0c-1.44,0-2.6-.07-3.75,0a2.35,2.35,0,0,0-1.44.71,10.35,10.35,0,0,0-2.49,6.18,1.47,1.47,0,0,0,.22,1c.85,1,1.77,2,2.66,2.92A21.16,21.16,0,0,1,40.53,24ZM12.6,35.5A19,19,0,0,1,23.53,40c0-1.5,0-2.74,0-4A1.69,1.69,0,0,0,22.94,35a10.59,10.59,0,0,0-6.38-2.62,1.55,1.55,0,0,0-1,.33C14.6,33.49,13.74,34.39,12.6,35.5Zm22.82,0c-1.1-1.07-1.92-1.91-2.79-2.67a1.56,1.56,0,0,0-1-.32,10.94,10.94,0,0,0-6.49,2.67c-.25.22-.57.53-.58.81-.06,1.26,0,2.53,0,4A18.81,18.81,0,0,1,35.42,35.49ZM24.47,34l6.67-2.75c-.8-.78-1.72-1.57-2.51-2.48s-1.7-.55-2.55-.19-1.74.68-1.63,1.95S24.47,32.92,24.47,34Zm-.94-20.74L17,15.95c.55.51,1.22,1.1,1.84,1.72C20.22,19,21,19.16,22.66,18a1.85,1.85,0,0,0,.83-1.12C23.6,15.65,23.53,14.37,23.53,13.25Zm.94,0c0,.11,0,.37,0,.64,0,1,0,2,0,3s2.81,2.39,3.69,1.7c1.06-.83,2-1.79,3-2.64ZM13.52,23A25.78,25.78,0,0,0,17.33,23a2.29,2.29,0,0,0,1.43-1.25,3.24,3.24,0,0,0,.31-2.38,20.55,20.55,0,0,0-2.74-3.2c-.44,1.52-.66,2.63-1.09,3.66S14.15,21.86,13.52,23Zm3,7.55c.82-.9,1.75-1.84,2.59-2.85.71-.86-.46-3.68-1.57-3.74-1.31-.07-2.62,0-3.77,0ZM34.24,23l-2.73-6.64c-.83.92-1.75,1.86-2.59,2.87-.71.86.44,3.69,1.54,3.75C31.78,23.09,33.1,23,34.24,23ZM23.53,33.75c0-1-.06-2.25,0-3.45a1.44,1.44,0,0,0-1.19-1.52c-.81-.27-1.9-.69-2.5-.36a16.81,16.81,0,0,0-3,2.59Zm8-3.19L34.25,24c-1.18,0-2.53-.08-3.87,0-1,.08-2.14,2.91-1.48,3.72C29.75,28.73,30.68,29.66,31.51,30.56ZM23.44,22V18.8l-2.27.95Zm1.06.08,2.44-2.27-2.44-1Zm-4.23-1.5-.93,2.36h3.31Zm7.47.1L25.53,23H28.7Zm-7.57,5.48,2.48-2.09H19.31ZM25.44,24l2.36,2.18L28.69,24Zm-4.23,3.26,2.25.93V25Zm3.35-2.33v3.25l2.37-1Z"/><text class="cls-2" transform="translate(11.92 32.31) scale(1.14 1)">W</text><text class="cls-2" transform="translate(36.08 14.69) rotate(180) scale(1.14 1)">W</text></g></svg>