<svg xmlns="http://www.w3.org/2000/svg" xmlns:xlink="http://www.w3.org/1999/xlink" viewBox="0 0 48 48"><defs><style>.cls-1{fill:url(#radial-gradient);}.cls-2{font-size:12px;fill:#00a86b;font-family:CenturyGothic, Century Gothic;}</style><radialGradient id="radial-gradient" cx="24" cy="24" r="23.5" gradientUnits="userSpaceOnUse"><stop offset="0" stop-color="#fff"/><stop offset="1" stop-color="#8cc63f"/></radialGradient></defs><title>Artboard 1</title><g id="Layer_2" data-name="Layer 2"><path class="cls-1" d="M24.47,47.5h-.94c0-1.61.05-3.21,0-4.82a2.33,2.33,0,0,0-.68-1.47A16.38,16.38,0,0,0,12.73,37a2.44,2.44,0,0,0-1.62.6c-1.16,1-2.2,2.22-3.4,3.45L7,40.26C8.18,39.09,9.35,38,10.4,36.89a2.43,2.43,0,0,0,.6-1.62A16.39,16.39,0,0,0,6.79,25.18a2.33,2.33,0,0,0-1.47-.68c-1.6-.09-3.21,0-4.82,0v-.94c1.61,0,3.21,0,4.82,0a2.18,2.18,0,0,0,1.39-.6A16.48,16.48,0,0,0,11,12.61a2.29,2.29,0,0,0-.61-1.5C9.34,10,8.18,8.91,7,7.72L7.72,7C8.91,8.18,10,9.34,11.1,10.4a2.29,2.29,0,0,0,1.51.61,16.48,16.48,0,0,0,10.3-4.3,2.18,2.18,0,0,0,.6-1.39c.07-1.6,0-3.21,0-4.82h.94c0,1.61-.05,3.21,0,4.82a2.34,2.34,0,0,0,.68,1.47A16.38,16.38,0,0,0,35.27,11a2.43,2.43,0,0,0,1.62-.6C38,9.35,39.09,8.18,40.26,7l.79.74c-1.24,1.2-2.41,2.25-3.45,3.4a2.44,2.44,0,0,0-.6,1.62,16.39,16.39,0,0,0,4.22,10.09,2.33,2.33,0,0,0,1.47.68c1.6.09,3.21,0,4.82,0v.94c-1.61,0-3.21-.05-4.82,0a2.34,2.34,0,0,0-1.47.68A16.38,16.38,0,0,0,37,35.27a2.44,2.44,0,0,0,.6,1.62c1,1.15,2.22,2.2,3.45,3.39L40.3,41C39.1,39.8,38,38.64,36.89,37.6a2.45,2.45,0,0,0-1.62-.6,16.37,16.37,0,0,0-10.09,4.22,2.34,2.34,0,0,0-.68,1.47C24.42,44.29,24.47,45.89,24.47,47.5ZM23.53,7.78a48.85,48.85,0,0,1-5.06,2.79A49.1,49.1,0,0,1,13,12.17c2.61,3.34,4.42,3.71,8.15,1.66.27-.15.53-.33.8-.48a2.7,2.7,0,0,0,1.65-3A15.75,15.75,0,0,1,23.53,7.78Zm.94-.29c0,1.43-.07,2.56,0,3.68a2.37,2.37,0,0,0,.68,1.46,10.46,10.46,0,0,0,6.28,2.54,1.15,1.15,0,0,0,.77-.12c1-.94,2-1.92,3.09-3.06A18.81,18.81,0,0,1,24.47,7.49ZM7.6,23.39c4.28.63,5.76-.25,7-4.15a17.22,17.22,0,0,0,.55-2.74,1.17,1.17,0,0,0-.21-.85c-.88-1-1.8-1.92-2.94-3.12A18.88,18.88,0,0,1,7.6,23.39ZM36,12.47c-1.15,1.23-2.06,2.18-2.93,3.17a1.28,1.28,0,0,0-.22.85A10.89,10.89,0,0,0,35.47,23c.17.2.4.49.61.5,1.41,0,2.81,0,4.43,0A18.94,18.94,0,0,1,36,12.47Zm-28.5,12A18.9,18.9,0,0,1,12,35.34c1.09-1.09,2-2,2.87-2.92a1.4,1.4,0,0,0,.28-.95A10.66,10.66,0,0,0,12.5,25a1.4,1.4,0,0,0-.85-.5C10.35,24.44,9,24.47,7.48,24.47Zm33,0c-1.44,0-2.6-.07-3.75,0a2.35,2.35,0,0,0-1.44.71,10.35,10.35,0,0,0-2.49,6.18,1.47,1.47,0,0,0,.22,1c.85,1,1.77,2,2.66,2.92A21.16,21.16,0,0,1,40.53,24.47ZM12.6,36a19,19,0,0,1,10.92,4.49c0-1.5,0-2.74,0-4a1.69,1.69,0,0,0-.56-1.05,10.59,10.59,0,0,0-6.38-2.62,1.55,1.55,0,0,0-1,.33C14.6,34,13.74,34.89,12.6,36Zm22.82,0c-1.1-1.07-1.92-1.91-2.79-2.67a1.56,1.56,0,0,0-1-.32,10.94,10.94,0,0,0-6.49,2.67c-.25.22-.57.53-.58.81-.06,1.26,0,2.53,0,4A18.81,18.81,0,0,1,35.42,36Zm-11-1.51,6.67-2.75c-.8-.78-1.72-1.57-2.51-2.48s-1.7-.55-2.55-.19-1.74.68-1.63,1.95S24.47,33.42,24.47,34.48Zm-.94-20.74L17,16.45c.55.51,1.22,1.1,1.84,1.72,1.4,1.38,2.17,1.49,3.85.38a1.85,1.85,0,0,0,.83-1.12C23.6,16.15,23.53,14.87,23.53,13.75Zm.94,0c0,.11,0,.37,0,.64,0,1,0,2,0,3s2.81,2.39,3.69,1.7c1.06-.83,2-1.79,3-2.64Zm-11,9.78a25.78,25.78,0,0,0,3.81-.06,2.29,2.29,0,0,0,1.43-1.25,3.24,3.24,0,0,0,.31-2.38,20.55,20.55,0,0,0-2.74-3.2c-.44,1.52-.66,2.63-1.09,3.66S14.15,22.36,13.52,23.53Zm3,7.55c.82-.9,1.75-1.84,2.59-2.85.71-.86-.46-3.68-1.57-3.74-1.31-.07-2.62,0-3.77,0Zm17.75-7.55-2.73-6.64c-.83.92-1.75,1.86-2.59,2.87-.71.86.44,3.69,1.54,3.75C31.78,23.59,33.1,23.53,34.24,23.53ZM23.53,34.25c0-1-.06-2.25,0-3.45a1.44,1.44,0,0,0-1.19-1.52c-.81-.27-1.9-.69-2.5-.36a16.81,16.81,0,0,0-3,2.59Zm8-3.19,2.74-6.58c-1.18,0-2.53-.08-3.87,0-1,.08-2.14,2.91-1.48,3.72C29.75,29.23,30.68,30.16,31.51,31.06Zm-8.07-8.57V19.3l-2.27.95Zm1.06.08,2.44-2.27-2.44-1Zm-4.23-1.5-.93,2.36h3.31Zm7.47.1-2.22,2.3H28.7Zm-7.57,5.48,2.48-2.09H19.31Zm5.26-2.14,2.36,2.18.89-2.18Zm-4.23,3.26,2.25.93V25.52Zm3.35-2.33v3.25l2.37-1Z"/><text class="cls-2" transform="translate(11.92 32.81) scale(1.14 1)">W</text><text class="cls-2" transform="translate(36.08 15.19) rotate(180) scale(1.14 1)">W</text></g></svg>